<svg xmlns="http://www.w3.org/2000/svg" width="38" height="38" viewBox="0 0 38 38">
  <metadata><?xpacket begin="﻿" id="W5M0MpCehiHzreSzNTczkc9d"?>
<x:xmpmeta xmlns:x="adobe:ns:meta/" x:xmptk="Adobe XMP Core 5.6-c140 79.160451, 2017/05/06-01:08:21        ">
   <rdf:RDF xmlns:rdf="http://www.w3.org/1999/02/22-rdf-syntax-ns#">
      <rdf:Description rdf:about=""/>
   </rdf:RDF>
</x:xmpmeta>
                                                                                                    
                                                                                                    
                                                                                                    
                                                                                                    
                                                                                                    
                                                                                                    
                                                                                                    
                                                                                                    
                                                                                                    
                                                                                                    
                                                                                                    
                                                                                                    
                                                                                                    
                                                                                                    
                                                                                                    
                                                                                                    
                                                                                                    
                                                                                                    
                                                                                                    
                                                                                                    
                           
<?xpacket end="w"?></metadata>
<defs>
    <style>
      .cls-1 {
        fill: #85c875;
        fill-rule: evenodd;
      }
    </style>
  </defs>
  <path id="Forma_1" data-name="Forma 1" class="cls-1" d="M1247,174.71a0.691,0.691,0,0,0-.71-0.71c-0.37.006-9.1,0.209-14.72,5.828l-7.12,7.125c-1.66-.583-7.3-1.678-15.24,6.264a0.69,0.69,0,0,0-.08.9,0.469,0.469,0,0,0,.08.088,0.7,0.7,0,0,0,.8.133c0.05-.027,5.12-2.474,7.81-0.756l-1.77,1.763a0.811,0.811,0,0,0-.11.143c-0.07.129-1.78,3.194,2.3,7.269s7.14,2.371,7.27,2.3a0.647,0.647,0,0,0,.14-0.11l1.76-1.763c1.72,2.688-.72,7.753-0.75,7.808a0.7,0.7,0,0,0,.13.8,0.212,0.212,0,0,0,.02.012,0.688,0.688,0,0,0,.97-0.01,0.14,0.14,0,0,0,.04-0.041c7.9-7.922,6.81-13.549,6.23-15.2l7.12-7.125C1246.79,183.807,1246.99,175.08,1247,174.71Zm-9.05,13.892a3.926,3.926,0,1,1,0-5.554A3.921,3.921,0,0,1,1237.95,188.6Zm-19.77,18.351a22.466,22.466,0,0,1-4.2.313,0.283,0.283,0,0,1-.24-0.242c0-.212.01-0.521,0.01-0.732,0.01-.31.02-0.619,0.04-0.928a21.079,21.079,0,0,1,.2-2.1,15.577,15.577,0,0,1,.91-3.553c0.06-.156.13-0.309,0.18-0.467a6.693,6.693,0,0,0-2.96,2.8,11.392,11.392,0,0,0-1.37,3.7,13.939,13.939,0,0,0-.23,2.324,4.173,4.173,0,0,0,.12,1.365,1.567,1.567,0,0,0,1.38,1.02,12.427,12.427,0,0,0,1.66-.006,10.591,10.591,0,0,0,7-2.925,6.355,6.355,0,0,0,1.08-1.6c-0.63.232-1.24,0.489-1.89,0.664C1219.31,206.736,1218.75,206.854,1218.18,206.953Z" transform="translate(-1209 -174)"/>
</svg>
