<svg id="Tag" xmlns="http://www.w3.org/2000/svg" width="27" height="20" viewBox="0 0 27 20">
  <metadata><?xpacket begin="﻿" id="W5M0MpCehiHzreSzNTczkc9d"?>
<x:xmpmeta xmlns:x="adobe:ns:meta/" x:xmptk="Adobe XMP Core 5.6-c140 79.160451, 2017/05/06-01:08:21        ">
   <rdf:RDF xmlns:rdf="http://www.w3.org/1999/02/22-rdf-syntax-ns#">
      <rdf:Description rdf:about=""/>
   </rdf:RDF>
</x:xmpmeta>
                                                                                                    
                                                                                                    
                                                                                                    
                                                                                                    
                                                                                                    
                                                                                                    
                                                                                                    
                                                                                                    
                                                                                                    
                                                                                                    
                                                                                                    
                                                                                                    
                                                                                                    
                                                                                                    
                                                                                                    
                                                                                                    
                                                                                                    
                                                                                                    
                                                                                                    
                                                                                                    
                           
<?xpacket end="w"?></metadata>
<defs>
    <style>
      .cls-1 {
        fill: #f15822;
      }

      .cls-1, .cls-2 {
        fill-rule: evenodd;
      }

      .cls-2 {
        fill: #fff;
      }
    </style>
  </defs>
  <path id="Rounded_Rectangle_3" data-name="Rounded Rectangle 3" class="cls-1" d="M401.2,10H411.8c4.527,0,8.2,4.477,8.2,10s-3.67,10-8.2,10H401.2c-4.526,0-8.2-4.477-8.2-10S396.67,10,401.2,10Z" transform="translate(-393 -10)"/>
  <path id="_8" data-name="8" class="cls-2" d="M407.72,25.1a3.483,3.483,0,0,0,1.155-.6,2.706,2.706,0,0,0,.746-0.939,2.778,2.778,0,0,0,.266-1.228,2.511,2.511,0,0,0-.459-1.528A2.7,2.7,0,0,0,408,19.873a2.45,2.45,0,0,0,1.151-.883,2.4,2.4,0,0,0,.387-1.377,2.443,2.443,0,0,0-.244-1.08,2.662,2.662,0,0,0-.682-0.872,3.2,3.2,0,0,0-1.045-.579,4.4,4.4,0,0,0-2.674,0,3.2,3.2,0,0,0-1.046.579,2.672,2.672,0,0,0-.681.872,2.359,2.359,0,0,0,1.293,3.339,2.7,2.7,0,0,0-1.428.928,2.511,2.511,0,0,0-.459,1.528,2.792,2.792,0,0,0,.266,1.228,2.721,2.721,0,0,0,.747.939,3.483,3.483,0,0,0,1.155.6A5.342,5.342,0,0,0,407.72,25.1Zm-2.27-1.274a1.619,1.619,0,0,1-.564-0.342,1.4,1.4,0,0,1-.346-0.522,1.81,1.81,0,0,1-.117-0.657,1.616,1.616,0,0,1,.481-1.27,2.257,2.257,0,0,1,2.652,0,1.619,1.619,0,0,1,.481,1.27,1.81,1.81,0,0,1-.117.657,1.412,1.412,0,0,1-.346.522,1.614,1.614,0,0,1-.565.342A2.524,2.524,0,0,1,405.45,23.822Zm0.044-4.726a1.29,1.29,0,0,1-.481-0.356,1.343,1.343,0,0,1-.258-0.508,2.269,2.269,0,0,1-.077-0.589,1.653,1.653,0,0,1,.091-0.551,1.272,1.272,0,0,1,.284-0.462,1.4,1.4,0,0,1,.485-0.321,2.057,2.057,0,0,1,1.384,0,1.373,1.373,0,0,1,.481.321,1.329,1.329,0,0,1,.284.462,1.606,1.606,0,0,1,.095.551,2.269,2.269,0,0,1-.077.589,1.343,1.343,0,0,1-.258.508,1.3,1.3,0,0,1-.481.356A2.087,2.087,0,0,1,405.494,19.1Z" transform="translate(-393 -10)"/>
</svg>
