<svg id="Tag_copy" data-name="Tag copy" xmlns="http://www.w3.org/2000/svg" width="27" height="20" viewBox="0 0 27 20">
  <metadata><?xpacket begin="﻿" id="W5M0MpCehiHzreSzNTczkc9d"?>
<x:xmpmeta xmlns:x="adobe:ns:meta/" x:xmptk="Adobe XMP Core 5.6-c140 79.160451, 2017/05/06-01:08:21        ">
   <rdf:RDF xmlns:rdf="http://www.w3.org/1999/02/22-rdf-syntax-ns#">
      <rdf:Description rdf:about=""/>
   </rdf:RDF>
</x:xmpmeta>
                                                                                                    
                                                                                                    
                                                                                                    
                                                                                                    
                                                                                                    
                                                                                                    
                                                                                                    
                                                                                                    
                                                                                                    
                                                                                                    
                                                                                                    
                                                                                                    
                                                                                                    
                                                                                                    
                                                                                                    
                                                                                                    
                                                                                                    
                                                                                                    
                                                                                                    
                                                                                                    
                           
<?xpacket end="w"?></metadata>
<defs>
    <style>
      .cls-1 {
        fill: #f63;
      }

      .cls-1, .cls-2 {
        fill-rule: evenodd;
      }

      .cls-2 {
        fill: #fff;
      }
    </style>
  </defs>
  <path id="Rounded_Rectangle_3" data-name="Rounded Rectangle 3" class="cls-1" d="M471.2,10H481.8c4.527,0,8.2,4.477,8.2,10s-3.67,10-8.2,10H471.2c-4.527,0-8.2-4.477-8.2-10S466.669,10,471.2,10Z" transform="translate(-463 -10)"/>
  <path id="_3" data-name="3" class="cls-2" d="M475.118,14.451a3.124,3.124,0,0,0-1.036.553,3.07,3.07,0,0,0-.752.917,3.748,3.748,0,0,0-.406,1.278l0.91,0.158a1.469,1.469,0,0,0,.238.021,0.606,0.606,0,0,0,.385-0.115,0.762,0.762,0,0,0,.231-0.381,1.7,1.7,0,0,1,.567-0.835,1.583,1.583,0,0,1,1.022-.325,1.5,1.5,0,0,1,1.071.368,1.423,1.423,0,0,1,.392,1.088,1.863,1.863,0,0,1-.1.616,1.052,1.052,0,0,1-.347.48,1.791,1.791,0,0,1-.668.311,4.178,4.178,0,0,1-1.057.112v1.239a5.069,5.069,0,0,1,1.228.119,1.751,1.751,0,0,1,.7.329,0.981,0.981,0,0,1,.322.508,2.657,2.657,0,0,1,.077.662,1.572,1.572,0,0,1-.109.571,1.529,1.529,0,0,1-.329.514,1.67,1.67,0,0,1-.549.375,1.911,1.911,0,0,1-.77.143,1.788,1.788,0,0,1-.676-0.116,1.714,1.714,0,0,1-.493-0.3,1.976,1.976,0,0,1-.361-0.424q-0.15-.238-0.276-0.483a0.523,0.523,0,0,0-.221-0.224,0.675,0.675,0,0,0-.325-0.077,1,1,0,0,0-.4.084l-0.763.315a5.673,5.673,0,0,0,.5,1.148,3.123,3.123,0,0,0,.714.84,2.883,2.883,0,0,0,.987.518,4.523,4.523,0,0,0,1.33.175,4.264,4.264,0,0,0,1.326-.2,3.286,3.286,0,0,0,1.1-.6,2.878,2.878,0,0,0,.756-0.976,3.041,3.041,0,0,0,.28-1.337,2.365,2.365,0,0,0-.448-1.477,2.644,2.644,0,0,0-1.358-.875,3.037,3.037,0,0,0,.675-0.315,1.887,1.887,0,0,0,.5-0.462,1.964,1.964,0,0,0,.315-0.64,2.986,2.986,0,0,0,.109-0.85,2.476,2.476,0,0,0-.214-1.029,2.419,2.419,0,0,0-.612-0.829,2.884,2.884,0,0,0-.963-0.553,3.761,3.761,0,0,0-1.263-.2A4.135,4.135,0,0,0,475.118,14.451Z" transform="translate(-463 -10)"/>
</svg>
