<svg xmlns="http://www.w3.org/2000/svg" xmlns:xlink="http://www.w3.org/1999/xlink" width="26.719" height="22.04" viewBox="0 0 26.719 22.04">
  <metadata><?xpacket begin="﻿" id="W5M0MpCehiHzreSzNTczkc9d"?>
<x:xmpmeta xmlns:x="adobe:ns:meta/" x:xmptk="Adobe XMP Core 5.6-c140 79.160451, 2017/05/06-01:08:21        ">
   <rdf:RDF xmlns:rdf="http://www.w3.org/1999/02/22-rdf-syntax-ns#">
      <rdf:Description rdf:about=""/>
   </rdf:RDF>
</x:xmpmeta>
                                                                                                    
                                                                                                    
                                                                                                    
                                                                                                    
                                                                                                    
                                                                                                    
                                                                                                    
                                                                                                    
                                                                                                    
                                                                                                    
                                                                                                    
                                                                                                    
                                                                                                    
                                                                                                    
                                                                                                    
                                                                                                    
                                                                                                    
                                                                                                    
                                                                                                    
                                                                                                    
                           
<?xpacket end="w"?></metadata>
<defs>
    <style>
      .cls-1 {
        fill: #acaba7;
        fill-rule: evenodd;
        filter: url(#filter);
      }
    </style>
    <filter id="filter" x="29.5" y="1124.12" width="26.719" height="22.04" filterUnits="userSpaceOnUse">
      <feFlood result="flood" flood-color="#ededec"/>
      <feComposite result="composite" operator="in" in2="SourceGraphic"/>
      <feBlend result="blend" in2="SourceGraphic"/>
    </filter>
  </defs>
  <path id="_" data-name="" class="cls-1" d="M37.346,1144.18v-4.2l4.717-2.02v3.86Zm-0.786-5.58-4.962-2.12,4.962-2.13,4.962,2.13Zm13.364,5.58v-4.2l4.717-2.02v3.86Zm-0.786-5.58-4.962-2.12,4.962-2.13,4.962,2.13Zm-5.5-3.6v-3.28l4.717-2.01v3.27Zm-0.786-4.65-5.417-2.32,5.417-2.33,5.417,2.33Zm13.364,6.36a1.577,1.577,0,0,0-.958-1.45l-5.331-2.28v-4.92a1.608,1.608,0,0,0-.958-1.45l-5.5-2.35a1.516,1.516,0,0,0-1.228,0l-5.5,2.35a1.608,1.608,0,0,0-.958,1.45v4.92l-5.331,2.28a1.6,1.6,0,0,0-.958,1.45v5.11a1.551,1.551,0,0,0,.872,1.4l5.5,2.75a1.527,1.527,0,0,0,1.4,0l5.5-2.75a0.1,0.1,0,0,1,.172,0l5.5,2.75a1.527,1.527,0,0,0,1.4,0l5.5-2.75a1.551,1.551,0,0,0,.872-1.4v-5.11Z" transform="translate(-29.5 -1124.12)"/>
</svg>
