<svg xmlns="http://www.w3.org/2000/svg" width="43" height="31" viewBox="0 0 43 31">
  <metadata><?xpacket begin="﻿" id="W5M0MpCehiHzreSzNTczkc9d"?>
<x:xmpmeta xmlns:x="adobe:ns:meta/" x:xmptk="Adobe XMP Core 5.6-c140 79.160451, 2017/05/06-01:08:21        ">
   <rdf:RDF xmlns:rdf="http://www.w3.org/1999/02/22-rdf-syntax-ns#">
      <rdf:Description rdf:about=""/>
   </rdf:RDF>
</x:xmpmeta>
                                                                                                    
                                                                                                    
                                                                                                    
                                                                                                    
                                                                                                    
                                                                                                    
                                                                                                    
                                                                                                    
                                                                                                    
                                                                                                    
                                                                                                    
                                                                                                    
                                                                                                    
                                                                                                    
                                                                                                    
                                                                                                    
                                                                                                    
                                                                                                    
                                                                                                    
                                                                                                    
                           
<?xpacket end="w"?></metadata>
<defs>
    <style>
      .cls-1 {
        fill: #0bc4df;
        fill-rule: evenodd;
      }
    </style>
  </defs>
  <path id="Forma_1" data-name="Forma 1" class="cls-1" d="M457.5,193.517c3.769,0,6.7-3.758,6.7-7.648V184.65a6.7,6.7,0,0,0-13.4,0v1.219C450.8,189.759,453.729,193.517,457.5,193.517Zm-13.425,1.258c1.077,0,4.027-1.344,4.027-4.133v-2.067a4.028,4.028,0,1,0-8.054,0v2.067C440.047,193.431,443.053,194.775,444.074,194.775Zm24.128,5.168c0-.02-0.008-0.039-0.01-0.06a4.887,4.887,0,0,0-.147-0.714,0.006,0.006,0,0,0,0-.006,4.35,4.35,0,0,0-.732-1.443v0a8.55,8.55,0,0,0-2.885-2.333,3.257,3.257,0,0,0-1.551-.593c-0.742,0-1.388.554-2.478,1.515h0l-0.991.876c-0.036.033-1.1,1.484-1.9,1.484s-1.869-1.452-1.9-1.484l-0.991-.876h0c-1.09-.961-1.737-1.515-2.478-1.515a2.979,2.979,0,0,0-1.551.593,10.007,10.007,0,0,0-2.883,2.331h0s0,0,0,.007a4.357,4.357,0,0,0-.727,1.433s0,0.009,0,.014a4.925,4.925,0,0,0-.146.707c0,0.023-.008.044-0.01,0.066a6.76,6.76,0,0,0-.046.789c0,0.03,0,5.657,0,5.684,0,1.836.72,2.583,2.687,2.583h16.124c1.984,0,2.687-.707,2.687-2.583,0-.027,0-5.654,0-5.684A7.018,7.018,0,0,0,468.2,199.943Zm2.746-5.168c1.077,0,4.027-1.344,4.027-4.133v-2.067a4.029,4.029,0,1,0-8.055,0v2.067C466.92,193.431,469.927,194.775,470.948,194.775Zm-31.891,2.8A5.545,5.545,0,0,0,436,202.542c0,0.022,0,2.563,0,2.583,0,1.875.655,2.583,2.687,2.583h5.375v-7.75l-1.344-1.291C441.3,197.462,440.1,197,439.057,197.573Zm5,2.385c0.029,0.025,0-.613,0,0h0ZM479,202.542a5.547,5.547,0,0,0-3.057-4.969c-1.042-.57-2.24-0.111-3.662,1.094l-1.343,1.291v7.751h5.375c2.032,0,2.687-.709,2.687-2.584C479,205.105,479,202.564,479,202.542Zm-8.062-2.584c0-.613-0.03.025,0,0h0Z" transform="translate(-436 -178)"/>
</svg>
