<svg xmlns="http://www.w3.org/2000/svg" width="34" height="34" viewBox="0 0 34 34">
  <metadata><?xpacket begin="﻿" id="W5M0MpCehiHzreSzNTczkc9d"?>
<x:xmpmeta xmlns:x="adobe:ns:meta/" x:xmptk="Adobe XMP Core 5.6-c140 79.160451, 2017/05/06-01:08:21        ">
   <rdf:RDF xmlns:rdf="http://www.w3.org/1999/02/22-rdf-syntax-ns#">
      <rdf:Description rdf:about=""/>
   </rdf:RDF>
</x:xmpmeta>
                                                                                                    
                                                                                                    
                                                                                                    
                                                                                                    
                                                                                                    
                                                                                                    
                                                                                                    
                                                                                                    
                                                                                                    
                                                                                                    
                                                                                                    
                                                                                                    
                                                                                                    
                                                                                                    
                                                                                                    
                                                                                                    
                                                                                                    
                                                                                                    
                                                                                                    
                                                                                                    
                           
<?xpacket end="w"?></metadata>
<defs>
    <style>
      .cls-1 {
        fill: #f1a80a;
        fill-rule: evenodd;
      }
    </style>
  </defs>
  <path id="Forma_1" data-name="Forma 1" class="cls-1" d="M710.686,192.5a3.721,3.721,0,0,1,.591.046l3.025-3.025a7.7,7.7,0,1,0,3.179,3.179l-3.025,3.025A3.815,3.815,0,1,1,710.686,192.5Zm9.06-2.065a10.819,10.819,0,1,1-3.18-3.179l2.789-2.788a14.7,14.7,0,1,0,3.179,3.179Zm10.216-8.8a0.814,0.814,0,0,0-.636-0.555l-2.9-.5-0.5-2.9a0.813,0.813,0,0,0-1.376-.436l-2.241,2.241a0.818,0.818,0,0,0-.238.575V183.4L709.963,195.5a1.084,1.084,0,0,0,1.532,1.533L723.6,184.929h3.343a0.811,0.811,0,0,0,.575-0.238l2.241-2.241A0.814,0.814,0,0,0,729.962,181.63Z" transform="translate(-696 -177)"/>
</svg>
