<svg xmlns="http://www.w3.org/2000/svg" width="35" height="35" viewBox="0 0 35 35">
  <metadata><?xpacket begin="﻿" id="W5M0MpCehiHzreSzNTczkc9d"?>
<x:xmpmeta xmlns:x="adobe:ns:meta/" x:xmptk="Adobe XMP Core 5.6-c140 79.160451, 2017/05/06-01:08:21        ">
   <rdf:RDF xmlns:rdf="http://www.w3.org/1999/02/22-rdf-syntax-ns#">
      <rdf:Description rdf:about=""/>
   </rdf:RDF>
</x:xmpmeta>
                                                                                                    
                                                                                                    
                                                                                                    
                                                                                                    
                                                                                                    
                                                                                                    
                                                                                                    
                                                                                                    
                                                                                                    
                                                                                                    
                                                                                                    
                                                                                                    
                                                                                                    
                                                                                                    
                                                                                                    
                                                                                                    
                                                                                                    
                                                                                                    
                                                                                                    
                                                                                                    
                           
<?xpacket end="w"?></metadata>
<defs>
    <style>
      .cls-1 {
        fill: #1e75eb;
        fill-rule: evenodd;
      }
    </style>
  </defs>
  <path id="Forma_1" data-name="Forma 1" class="cls-1" d="M966.72,202.765a13.7,13.7,0,0,0,2.682-.264,2.023,2.023,0,0,1,.421-1.425l7.852-10.084a1.978,1.978,0,0,1,2.667-.437,14.158,14.158,0,0,0,.1-1.67A13.721,13.721,0,1,0,966.72,202.765Zm2.558-11.942a4.141,4.141,0,0,0-2.351-1.175,10.419,10.419,0,0,1-2.968-1.028,3.586,3.586,0,0,1-1.426-1.45,4.611,4.611,0,0,1,.957-5.446,4.63,4.63,0,0,1,2.232-1.021v-0.749a0.913,0.913,0,0,1,.907-0.918h0.494a0.912,0.912,0,0,1,.907.918v0.76a4.625,4.625,0,0,1,2.09.944,4.179,4.179,0,0,1,1.263,1.839,0.917,0.917,0,0,1-.722,1.212l-0.479.074a0.9,0.9,0,0,1-.994-0.614,2.258,2.258,0,0,0-2.33-1.612,2.712,2.712,0,0,0-2.032.849,2.22,2.22,0,0,0-.57,1.535,2.248,2.248,0,0,0,.483,1.468,4.626,4.626,0,0,0,2.819,1.253,8.8,8.8,0,0,1,1.811.5,4.763,4.763,0,0,1,1.455.969,4,4,0,0,1,.875,1.37,4.673,4.673,0,0,1,.3,1.7,4.737,4.737,0,0,1-1.266,3.356,4.838,4.838,0,0,1-2.707,1.414v0.555a0.913,0.913,0,0,1-.907.918h-0.5a0.914,0.914,0,0,1-.908-0.918v-0.577a6.065,6.065,0,0,1-1.676-.577,4.155,4.155,0,0,1-1.564-1.52,4.9,4.9,0,0,1-.628-1.6,0.914,0.914,0,0,1,.733-1.09l0.49-.089a0.906,0.906,0,0,1,1.034.68,3.5,3.5,0,0,0,.556,1.278,2.893,2.893,0,0,0,2.3,1.079h0a2.678,2.678,0,0,0,2.772-2.787A2.347,2.347,0,0,0,969.278,190.823Zm4.9,19.177h10.128a0.913,0.913,0,0,0,.907-0.918v-5.839h1.879a0.918,0.918,0,0,0,.712-1.487l-7.686-9.875-0.163-.209a0.891,0.891,0,0,0-.711-0.349,0.9,0.9,0,0,0-.712.349l-7.852,10.084a0.919,0.919,0,0,0,.711,1.487h1.88v5.839A0.912,0.912,0,0,0,974.177,210Z" transform="translate(-953 -175)"/>
</svg>
