<svg id="bg" xmlns="http://www.w3.org/2000/svg" width="94.34" height="23.438" viewBox="0 0 94.34 23.438">
  <metadata><?xpacket begin="﻿" id="W5M0MpCehiHzreSzNTczkc9d"?>
<x:xmpmeta xmlns:x="adobe:ns:meta/" x:xmptk="Adobe XMP Core 5.6-c140 79.160451, 2017/05/06-01:08:21        ">
   <rdf:RDF xmlns:rdf="http://www.w3.org/1999/02/22-rdf-syntax-ns#">
      <rdf:Description rdf:about=""/>
   </rdf:RDF>
</x:xmpmeta>
                                                                                                    
                                                                                                    
                                                                                                    
                                                                                                    
                                                                                                    
                                                                                                    
                                                                                                    
                                                                                                    
                                                                                                    
                                                                                                    
                                                                                                    
                                                                                                    
                                                                                                    
                                                                                                    
                                                                                                    
                                                                                                    
                                                                                                    
                                                                                                    
                                                                                                    
                                                                                                    
                           
<?xpacket end="w"?></metadata>
<defs>
    <style>
      .cls-1, .cls-2 {
        fill: #0cc;
        fill-rule: evenodd;
      }

      .cls-1 {
        fill-opacity: 0.32;
      }
    </style>
  </defs>
  <path id="bg-2" data-name="bg" class="cls-1" d="M1233,1019h94v-18l-11-5-9,10h-11l-11,9-19-6-12,9-11-9Z" transform="translate(-1232.66 -995.562)"/>
  <path id="line" class="cls-2" d="M1233.35,1017.35l-0.7-.7,9-9,0.7,0.7Zm8.33-8.96,0.64-.78,11,9-0.64.78Zm11.61,9.01-0.58-.81,11-8,0.58,0.81Zm10.92-7.95-0.42-.91,20,5,0.41,0.91Zm19.58,5,0.42-.91,11-9-0.42.91Zm11.16-8.95,0.1-1,11,1-0.1,1Zm11.42,0.83-0.74-.67,9-10,0.74,0.668Zm9.39-9.894,0.48-.874,9,5-0.48.88Z" transform="translate(-1232.66 -995.562)"/>
</svg>
