<svg id="bg" xmlns="http://www.w3.org/2000/svg" width="94.34" height="23.438" viewBox="0 0 94.34 23.438">
  <metadata><?xpacket begin="﻿" id="W5M0MpCehiHzreSzNTczkc9d"?>
<x:xmpmeta xmlns:x="adobe:ns:meta/" x:xmptk="Adobe XMP Core 5.6-c140 79.160451, 2017/05/06-01:08:21        ">
   <rdf:RDF xmlns:rdf="http://www.w3.org/1999/02/22-rdf-syntax-ns#">
      <rdf:Description rdf:about=""/>
   </rdf:RDF>
</x:xmpmeta>
                                                                                                    
                                                                                                    
                                                                                                    
                                                                                                    
                                                                                                    
                                                                                                    
                                                                                                    
                                                                                                    
                                                                                                    
                                                                                                    
                                                                                                    
                                                                                                    
                                                                                                    
                                                                                                    
                                                                                                    
                                                                                                    
                                                                                                    
                                                                                                    
                                                                                                    
                                                                                                    
                           
<?xpacket end="w"?></metadata>
<defs>
    <style>
      .cls-1, .cls-2 {
        fill: #36f;
        fill-rule: evenodd;
      }

      .cls-1 {
        fill-opacity: 0.32;
      }
    </style>
  </defs>
  <path id="bg-2" data-name="bg" class="cls-1" d="M1233,948h94V930l-11-5-9,10-13-1-9-5-19,9-12,9-11-9Z" transform="translate(-1232.66 -924.562)"/>
  <path id="line" class="cls-2" d="M1233.35,946.353l-0.7-.708,9-9,0.7,0.707Zm8.33-8.967,0.64-.774,11,9-0.64.774Zm11.61,9.018-0.58-.809,11-8,0.58,0.808Zm10.92-7.949-0.42-.912,20-9,0.41,0.912Zm19.58-9,0.42-.91,11,5-0.42.91Zm11.16,5.043,0.1-1,11,1-0.1,1Zm11.42,0.836-0.74-.669,9-10,0.74,0.669Zm9.39-9.9,0.48-.874,9,5-0.48.874Z" transform="translate(-1232.66 -924.562)"/>
</svg>
