<svg id="bg" xmlns="http://www.w3.org/2000/svg" width="95" height="23.44" viewBox="0 0 95 23.44">
  <metadata><?xpacket begin="﻿" id="W5M0MpCehiHzreSzNTczkc9d"?>
<x:xmpmeta xmlns:x="adobe:ns:meta/" x:xmptk="Adobe XMP Core 5.6-c140 79.160451, 2017/05/06-01:08:21        ">
   <rdf:RDF xmlns:rdf="http://www.w3.org/1999/02/22-rdf-syntax-ns#">
      <rdf:Description rdf:about=""/>
   </rdf:RDF>
</x:xmpmeta>
                                                                                                    
                                                                                                    
                                                                                                    
                                                                                                    
                                                                                                    
                                                                                                    
                                                                                                    
                                                                                                    
                                                                                                    
                                                                                                    
                                                                                                    
                                                                                                    
                                                                                                    
                                                                                                    
                                                                                                    
                                                                                                    
                                                                                                    
                                                                                                    
                                                                                                    
                                                                                                    
                           
<?xpacket end="w"?></metadata>
<defs>
    <style>
      .cls-1, .cls-2 {
        fill: #85c875;
        fill-rule: evenodd;
      }

      .cls-1 {
        fill-opacity: 0.32;
      }
    </style>
  </defs>
  <path id="bg-2" data-name="bg" class="cls-1" d="M1232,1162h95v-18l-11-5-9,10-13-1-9-5-19,9-12,9-21-15Z" transform="translate(-1232 -1138.56)"/>
  <path id="line" class="cls-2" d="M1234.35,1146.35l-0.7-.7h-1l0.7,0.7h1Zm-1.67.04,0.64-.78,20,14-0.64.78Zm20.61,14.01-0.58-.81,11-8,0.58,0.81Zm10.92-7.95-0.42-.91,20-9,0.41,0.91Zm19.58-9,0.42-.91,11,5-0.42.91Zm11.16,5.05,0.1-1,11,1-0.1,1Zm11.42,0.83-0.74-.67,9-10,0.74,0.67Zm9.39-9.89,0.48-.88,9,5-0.48.88Z" transform="translate(-1232 -1138.56)"/>
</svg>
