<svg xmlns="http://www.w3.org/2000/svg" xmlns:xlink="http://www.w3.org/1999/xlink" width="19" height="23" viewBox="0 0 19 23">
  <metadata><?xpacket begin="﻿" id="W5M0MpCehiHzreSzNTczkc9d"?>
<x:xmpmeta xmlns:x="adobe:ns:meta/" x:xmptk="Adobe XMP Core 5.6-c140 79.160451, 2017/05/06-01:08:21        ">
   <rdf:RDF xmlns:rdf="http://www.w3.org/1999/02/22-rdf-syntax-ns#">
      <rdf:Description rdf:about=""/>
   </rdf:RDF>
</x:xmpmeta>
                                                                                                    
                                                                                                    
                                                                                                    
                                                                                                    
                                                                                                    
                                                                                                    
                                                                                                    
                                                                                                    
                                                                                                    
                                                                                                    
                                                                                                    
                                                                                                    
                                                                                                    
                                                                                                    
                                                                                                    
                                                                                                    
                                                                                                    
                                                                                                    
                                                                                                    
                                                                                                    
                           
<?xpacket end="w"?></metadata>
<defs>
    <style>
      .cls-1 {
        fill: #acaba7;
        fill-rule: evenodd;
        filter: url(#filter);
      }
    </style>
    <filter id="filter" x="34" y="790" width="19" height="23" filterUnits="userSpaceOnUse">
      <feFlood result="flood" flood-color="#ededec"/>
      <feComposite result="composite" operator="in" in2="SourceGraphic"/>
      <feBlend result="blend" in2="SourceGraphic"/>
    </filter>
  </defs>
  <path id="Invoice" class="cls-1" d="M53,812.428V794.911a0.561,0.561,0,0,0-.191-0.419l-4.87-4.339A0.612,0.612,0,0,0,47.532,790H34.6a0.586,0.586,0,0,0-.6.572v21.856a0.587,0.587,0,0,0,.6.572H52.4A0.586,0.586,0,0,0,53,812.428ZM35.2,791.144H46.357v4.292a0.585,0.585,0,0,0,.6.572H51.8v15.848H35.2V791.144Zm16.277,3.72h-3.92v-3.493Zm-7.64,9.9a5.578,5.578,0,0,0-2.913-1.275v-3.851a1.576,1.576,0,0,1,1.327,1.564,0.2,0.2,0,0,0,.2.175h1.719a0.212,0.212,0,0,0,.2-0.191,0.177,0.177,0,0,0-.016-0.073,3.385,3.385,0,0,0-3.433-3.156v-1.122a0.2,0.2,0,0,0-.2-0.19H39.779a0.2,0.2,0,0,0-.2.19v1.125a4.315,4.315,0,0,0-2.54,1.087,3.336,3.336,0,0,0-1.023,2.534c0,1.816,1.2,2.987,3.563,3.479v4.315a2.187,2.187,0,0,1-1.731-2.2,0.2,0.2,0,0,0-.2-0.174H35.943a0.2,0.2,0,0,0-.147.06,0.189,0.189,0,0,0-.052.144c0.167,2.249,1.457,3.543,3.835,3.848v1.119a0.2,0.2,0,0,0,.2.191h0.942a0.2,0.2,0,0,0,.2-0.191V811.05a3.975,3.975,0,0,0,2.705-1.235,3.875,3.875,0,0,0,1.043-2.687A3.3,3.3,0,0,0,43.833,804.765Zm-1.279,2.464a1.9,1.9,0,0,1-1.634,2.157v-4.027a2.71,2.71,0,0,1,1.267.645A1.816,1.816,0,0,1,42.554,807.229Zm-4.432-5.773a1.7,1.7,0,0,1,1.458-1.827v3.576a2.876,2.876,0,0,1-1.011-.521A1.521,1.521,0,0,1,38.122,801.456Z" transform="translate(-34 -790)"/>
</svg>
