<svg xmlns="http://www.w3.org/2000/svg" xmlns:xlink="http://www.w3.org/1999/xlink" width="26" height="26" viewBox="0 0 26 26">
  <metadata><?xpacket begin="﻿" id="W5M0MpCehiHzreSzNTczkc9d"?>
<x:xmpmeta xmlns:x="adobe:ns:meta/" x:xmptk="Adobe XMP Core 5.6-c140 79.160451, 2017/05/06-01:08:21        ">
   <rdf:RDF xmlns:rdf="http://www.w3.org/1999/02/22-rdf-syntax-ns#">
      <rdf:Description rdf:about=""/>
   </rdf:RDF>
</x:xmpmeta>
                                                                                                    
                                                                                                    
                                                                                                    
                                                                                                    
                                                                                                    
                                                                                                    
                                                                                                    
                                                                                                    
                                                                                                    
                                                                                                    
                                                                                                    
                                                                                                    
                                                                                                    
                                                                                                    
                                                                                                    
                                                                                                    
                                                                                                    
                                                                                                    
                                                                                                    
                                                                                                    
                           
<?xpacket end="w"?></metadata>
<defs>
    <style>
      .cls-1 {
        fill: #acaba7;
        fill-rule: evenodd;
        filter: url(#filter);
      }
    </style>
    <filter id="filter" x="30" y="1190" width="26" height="26" filterUnits="userSpaceOnUse">
      <feFlood result="flood" flood-color="#ededec"/>
      <feComposite result="composite" operator="in" in2="SourceGraphic"/>
      <feBlend result="blend" in2="SourceGraphic"/>
    </filter>
  </defs>
  <path id="Forma_1" data-name="Forma 1" class="cls-1" d="M51.3,1198.3c0.141-.06.339-0.12,0.5-0.17a4.408,4.408,0,0,0,1.792-.92l0.148-.15v-0.01a3.109,3.109,0,0,0-2.35-5.15,3.059,3.059,0,0,0-2.158.87l-0.045.04a4.479,4.479,0,0,0-.935,1.74c-0.058.16-.131,0.37-0.194,0.51a0.04,0.04,0,0,0-.021-0.02L43,1190l-5.291,5.29a0.992,0.992,0,0,0-.346.89,1.4,1.4,0,0,0,1.1.83,3.21,3.21,0,0,1,1.053.51l0.05,0.05a1.663,1.663,0,0,1,0,2.35,1.7,1.7,0,0,1-2.344-.01l-0.053-.05a3.192,3.192,0,0,1-.486-1.06,1.236,1.236,0,0,0-.966-1.15,1,1,0,0,0-.719.36L30,1203l13,13,4.658-4.66a1.093,1.093,0,0,0,.391-0.97,1.6,1.6,0,0,0-1.255-.92,3.667,3.667,0,0,1-1.363-.7,2.1,2.1,0,0,1,0-2.96,2.078,2.078,0,0,1,2.961,0l0.077,0.07a3.9,3.9,0,0,1,.6,1.31c0.206,0.65.419,1.31,1.064,1.31a1.172,1.172,0,0,0,.791-0.4L56,1203Zm-1.094,9.06c-0.058-.14-0.12-0.34-0.171-0.5a4.291,4.291,0,0,0-.913-1.79l-0.176-.17H48.933a3.112,3.112,0,0,0-4.217,4.57,4.537,4.537,0,0,0,1.738.94c0.163,0.06.367,0.13,0.506,0.19-0.007.01-.013,0.01-0.02,0.02L43,1214.56,31.439,1203l4.179-4.18c0.033,0.09.066,0.2,0.095,0.29a3.619,3.619,0,0,0,.781,1.52l0.148,0.15h0.012a2.682,2.682,0,0,0,1.739.64,2.673,2.673,0,0,0,1.962-4.49l-0.074-.08a3.719,3.719,0,0,0-1.48-.8c-0.092-.04-0.2-0.07-0.3-0.11l4.5-4.5,4.316,4.31a1.167,1.167,0,0,0,.8.41c0.638,0,.868-0.65,1.089-1.27a3.864,3.864,0,0,1,.662-1.33l0.039-.03a2.093,2.093,0,0,1,3.574,1.48,2.088,2.088,0,0,1-.613,1.48l-0.066.07a4.048,4.048,0,0,1-1.318.6,1.581,1.581,0,0,0-1.291.89,1.087,1.087,0,0,0,.382.97l3.985,3.98Z" transform="translate(-30 -1190)"/>
</svg>
