<svg xmlns="http://www.w3.org/2000/svg" xmlns:xlink="http://www.w3.org/1999/xlink" width="21.281" height="21.255" viewBox="0 0 21.281 21.255">
  <metadata><?xpacket begin="﻿" id="W5M0MpCehiHzreSzNTczkc9d"?>
<x:xmpmeta xmlns:x="adobe:ns:meta/" x:xmptk="Adobe XMP Core 5.6-c140 79.160451, 2017/05/06-01:08:21        ">
   <rdf:RDF xmlns:rdf="http://www.w3.org/1999/02/22-rdf-syntax-ns#">
      <rdf:Description rdf:about=""/>
   </rdf:RDF>
</x:xmpmeta>
                                                                                                    
                                                                                                    
                                                                                                    
                                                                                                    
                                                                                                    
                                                                                                    
                                                                                                    
                                                                                                    
                                                                                                    
                                                                                                    
                                                                                                    
                                                                                                    
                                                                                                    
                                                                                                    
                                                                                                    
                                                                                                    
                                                                                                    
                                                                                                    
                                                                                                    
                                                                                                    
                           
<?xpacket end="w"?></metadata>
<defs>
    <style>
      .cls-1 {
        fill: #acaba7;
        fill-rule: evenodd;
        filter: url(#filter);
      }
    </style>
    <filter id="filter" x="31.969" y="990.625" width="21.281" height="21.255" filterUnits="userSpaceOnUse">
      <feFlood result="flood" flood-color="#ededec"/>
      <feComposite result="composite" operator="in" in2="SourceGraphic"/>
      <feBlend result="blend" in2="SourceGraphic"/>
    </filter>
  </defs>
  <path id="_" data-name="" class="cls-1" d="M53.239,1009a1.644,1.644,0,0,0-.455-1.12l-4.459-4.46a1.594,1.594,0,0,0-2.3.08l-3.145-3.15,1.548-1.545a0.594,0.594,0,0,0,0-.836,1.64,1.64,0,0,0,1.2.713,1.192,1.192,0,0,0,.835-0.344,2.334,2.334,0,0,0,1.032-1.523,1.193,1.193,0,0,0-.344-0.836l-5.012-5.011a1.191,1.191,0,0,0-.835-0.344,2.33,2.33,0,0,0-1.523,1.032,1.191,1.191,0,0,0-.344.835,1.643,1.643,0,0,0,.712,1.2,0.593,0.593,0,0,0-.835,0l-4.275,4.274a0.594,0.594,0,0,0,0,.836,1.64,1.64,0,0,0-1.2-.713,1.191,1.191,0,0,0-.835.344,2.334,2.334,0,0,0-1.032,1.523,1.172,1.172,0,0,0,.344.831l5.012,5.02a1.192,1.192,0,0,0,.835.34,2.338,2.338,0,0,0,1.523-1.03,1.213,1.213,0,0,0,.344-0.84,1.646,1.646,0,0,0-.712-1.2,0.6,0.6,0,0,0,.835,0l1.548-1.55,3.145,3.15a1.615,1.615,0,0,0-.528,1.18,1.538,1.538,0,0,0,.467,1.1l4.459,4.47a1.6,1.6,0,0,0,1.105.46,1.65,1.65,0,0,0,1.118-.46l1.314-1.32A1.6,1.6,0,0,0,53.239,1009Z" transform="translate(-31.969 -990.625)"/>
</svg>
